<svg width="38" height="38" viewBox="0 0 38 38" fill="none" xmlns="http://www.w3.org/2000/svg">
<g id="ARROW">
<path id="Vector" fill-rule="evenodd" clip-rule="evenodd" d="M9.23771 28.7621C8.74303 28.2673 8.74303 27.4652 9.23771 26.9707L26.0754 10.1329H15.2C14.5005 10.1329 13.9334 9.56583 13.9334 8.86628C13.9334 8.16672 14.5005 7.59961 15.2 7.59961H29.1334C29.4693 7.59961 29.7915 7.73307 30.0292 7.97062C30.2665 8.20817 30.4 8.53033 30.4 8.86628V22.7996C30.4 23.4992 29.8328 24.0663 29.1334 24.0663C28.4339 24.0663 27.8667 23.4992 27.8667 22.7996V11.9243L11.029 28.7621C10.5344 29.2566 9.73237 29.2566 9.23771 28.7621Z" fill="white"/>
</g>
</svg>
