<svg width="26" height="26" viewBox="0 0 26 26" fill="none" xmlns="http://www.w3.org/2000/svg">
<g id="ARROW ICON">
<path id="Vector" fill-rule="evenodd" clip-rule="evenodd" d="M6.32099 19.6788C5.98252 19.3403 5.98252 18.7915 6.32099 18.4532L17.8415 6.93255H10.4005C9.92183 6.93255 9.53381 6.54453 9.53381 6.06589C9.53381 5.58724 9.92183 5.19922 10.4005 5.19922H19.9338C20.1637 5.19922 20.3841 5.29053 20.5467 5.45307C20.7091 5.6156 20.8005 5.83603 20.8005 6.06589V15.5992C20.8005 16.0779 20.4124 16.4659 19.9338 16.4659C19.4552 16.4659 19.0671 16.0779 19.0671 15.5992V8.15821L7.54663 19.6788C7.20818 20.0171 6.65944 20.0171 6.32099 19.6788Z" fill="#F9F1F0"/>
</g>
</svg>
