<svg width="119" height="119" viewBox="0 0 119 119" fill="none" xmlns="http://www.w3.org/2000/svg">
<g id="FLOWER ICON" clip-path="url(#clip0_95_37)">
<path id="Vector" d="M118.104 69.686C117.594 72.5384 111.498 74.3802 102.562 74.3802H102.336C98.9952 71.66 94.9376 68.8926 90.3705 66.2951C89.0589 65.549 87.7472 64.8406 86.4356 64.1794C87.9077 63.9905 89.3797 63.7733 90.8612 63.5183C95.9096 62.6399 100.684 61.412 104.865 59.9574C113.206 62.9138 118.641 66.6541 118.094 69.6765L118.104 69.686ZM111.036 88.8314C110.215 90.2293 108.045 90.5221 106.365 90.5221C103.279 90.5221 99.1651 89.587 94.5885 87.9246C92.8145 84.9494 90.6064 81.7947 88.0398 78.5833C87.9548 78.4794 87.8605 78.3661 87.7756 78.2622C87.5585 77.9883 87.3415 77.7238 87.115 77.4499C86.7942 77.0627 86.4734 76.6754 86.1431 76.2976C85.1712 75.1547 84.1804 74.0496 83.1896 72.9918C84.6144 73.3035 86.0676 73.5963 87.568 73.8513C92.5408 74.7108 97.4949 75.1831 101.958 75.2208C108.771 80.8124 112.583 86.1678 111.026 88.8219L111.036 88.8314ZM79.8586 114.617C79.5944 114.711 79.3018 114.758 78.9999 114.758C76.018 114.758 71.8189 110.3 67.8463 103.471C68.5634 99.2683 68.9598 94.4324 68.9598 89.247C68.9598 87.7641 68.922 86.2906 68.856 84.8455C69.743 85.9884 70.6677 87.1312 71.6491 88.2836C74.0648 91.1171 76.5559 93.724 79.0188 96.0003C79.9529 96.8598 80.8683 97.6815 81.7836 98.4466C83.35 107.051 82.7838 113.568 79.8586 114.617ZM59.5047 118.159C56.3813 118.159 53.5882 112.227 52.0784 103.604C54.2298 99.8728 56.2964 95.4619 58.0704 90.6449C58.5894 89.2375 59.0612 87.8491 59.5047 86.4795C59.9388 87.8491 60.42 89.2375 60.939 90.6449C62.713 95.4525 64.7795 99.8634 66.931 103.604C65.4212 112.227 62.6281 118.159 59.5047 118.159ZM40.0095 114.768C39.7075 114.768 39.415 114.721 39.1508 114.626C36.2161 113.578 35.65 107.061 37.2258 98.456C40.5568 95.6602 44.0293 92.1939 47.3509 88.293C48.3322 87.1501 49.257 85.9978 50.144 84.8549C50.0779 86.2906 50.0402 87.7546 50.0402 89.2564C50.0402 94.4418 50.4459 99.2778 51.1536 103.481C47.1904 110.31 42.9819 114.768 40.0095 114.768ZM23.2791 105.068C22.4298 105.068 21.7504 104.86 21.2503 104.444C19.5801 103.065 19.8821 99.3722 22.0807 94.3096C22.8639 92.5056 23.8547 90.5882 25.0248 88.6141C29.1484 87.0935 33.6306 85.0061 38.0939 82.4653C39.4056 81.7191 40.6795 80.9541 41.9156 80.1796C41.3494 81.5113 40.8116 82.8715 40.2926 84.2788C38.4903 89.1714 37.1881 93.8657 36.3954 98.0688C31.1678 102.432 26.393 105.068 23.2885 105.068H23.2791ZM12.635 90.5315C10.9554 90.5315 8.78507 90.2387 7.96412 88.8408C6.40715 86.1773 10.2194 80.8313 17.0323 75.2397C21.4862 75.202 26.4402 74.7297 31.4225 73.8702C32.9229 73.6057 34.3855 73.3129 35.8104 73.0107C34.8196 74.0685 33.8288 75.1736 32.8568 76.3165C29.5542 80.1985 26.6856 84.1749 24.4303 87.9435C19.8443 89.6153 15.7301 90.5504 12.635 90.5504V90.5315ZM16.4378 74.3897C7.51119 74.3897 1.4154 72.5479 0.896407 69.6954C0.358543 66.6729 5.78436 62.9327 14.1165 59.9763C18.193 61.4025 22.9488 62.6304 28.1293 63.5277C29.6108 63.7827 31.0923 64.0094 32.5549 64.1983C31.2432 64.8595 29.941 65.5679 28.62 66.314C24.0529 68.9115 20.0047 71.6789 16.6643 74.3991H16.4284L16.4378 74.3897ZM7.96412 30.1767C8.78507 28.7788 10.9554 28.486 12.635 28.486C15.7207 28.486 19.8349 29.4211 24.4114 31.0835C26.6101 34.7576 29.4598 38.7246 32.8474 42.7105C33.8193 43.8534 34.8101 44.9584 35.8009 46.0163C34.3761 45.7046 32.9135 45.4118 31.4131 45.1568C28.8181 44.7034 26.2232 44.3634 23.7037 44.1273C21.4013 43.9195 19.1555 43.8061 17.0229 43.7872C10.2099 38.1957 6.39772 32.8497 7.95469 30.1862L7.96412 30.1767ZM21.2503 14.5733C21.7504 14.1577 22.4298 13.9499 23.2791 13.9499C26.3836 13.9499 31.1678 16.5945 36.3954 20.9488C37.1881 25.1519 38.4808 29.8461 40.2926 34.7293C40.8116 36.1366 41.3589 37.5062 41.9156 38.838C40.6889 38.0635 39.415 37.2984 38.0939 36.5522C33.64 34.0115 29.1673 31.9335 25.0437 30.4129C20.5803 22.8567 18.8535 16.5473 21.2409 14.5733H21.2503ZM39.1508 4.39134C39.415 4.29689 39.7075 4.24967 40.0095 4.24967C42.9819 4.24967 47.1904 8.7078 51.1536 15.5272C50.4365 19.7303 50.0402 24.5663 50.0402 29.7611C50.0402 30.2617 50.0402 30.7623 50.0496 31.2629C50.0496 31.6124 50.059 31.9619 50.0779 32.3113C50.0779 32.4436 50.0779 32.5852 50.0874 32.7175C50.0968 33.2086 50.1251 33.6903 50.144 34.1626C49.257 33.0197 48.3322 31.8769 47.3509 30.7245C44.0293 26.8237 40.5568 23.3573 37.2258 20.5615C35.65 11.9569 36.2161 5.44921 39.1508 4.39134ZM78.9999 4.24967C79.3018 4.24967 79.5849 4.29689 79.8586 4.39134C81.8968 5.11862 82.897 8.69835 82.5951 14.1955C82.4913 16.1601 82.2176 18.2947 81.8119 20.5426C78.4809 23.3478 74.9895 26.8142 71.6585 30.7245C70.6866 31.8674 69.7618 33.0103 68.8654 34.1626C68.9315 32.7269 68.9692 31.2629 68.9692 29.7611C68.9692 29.2416 68.9692 28.7316 68.9598 28.2121C68.9598 28.1555 68.9598 28.0988 68.9598 28.0421C68.9598 27.6171 68.9409 27.192 68.9315 26.767C68.922 26.3986 68.9031 26.0492 68.8937 25.6903C68.8937 25.5769 68.8937 25.4636 68.8843 25.3597C68.7239 21.8272 68.3747 18.5214 67.8652 15.5272C71.8378 8.69835 76.0369 4.24967 79.0188 4.24967H78.9999ZM95.7303 13.9499C96.5701 13.9499 97.2589 14.1671 97.7591 14.5733C100.146 16.5473 98.429 22.8567 93.9657 30.4129C89.8421 31.9335 85.3788 34.0115 80.9249 36.5522C79.6038 37.2984 78.3299 38.0635 77.1032 38.838C77.6694 37.5062 78.2072 36.1366 78.7262 34.7293C80.4814 29.9689 81.8024 25.2558 82.6045 20.9582C87.8322 16.5851 92.6258 13.9404 95.7303 13.9404V13.9499ZM106.374 28.486C108.054 28.486 110.224 28.7788 111.045 30.1767C112.13 32.0374 110.564 35.3999 106.752 39.4236C105.393 40.8592 103.798 42.3232 102.015 43.7778C97.5515 43.8156 92.5786 44.2878 87.5963 45.1474C86.0959 45.4024 84.6333 45.6952 83.2179 46.0069C84.2087 44.949 85.19 43.8439 86.1714 42.701C89.559 38.7246 92.4087 34.7576 94.6074 31.074C99.1839 29.4117 103.298 28.4766 106.384 28.4766L106.374 28.486ZM75.4613 59.504C78.4903 58.4934 81.7458 57.1427 85.0768 55.5087C86.9357 55.726 88.8324 55.9904 90.7291 56.321C95.3717 57.1239 99.7407 58.2384 103.572 59.5135C99.6935 60.8075 95.3245 61.8937 90.7291 62.6871C88.8324 63.0177 86.9452 63.2821 85.0768 63.4994C81.7364 61.8653 78.4809 60.5147 75.4519 59.504H75.4613ZM75.8954 64.0566C75.0178 64.0566 74.1686 64.0377 73.3476 64C71.8944 62.9043 70.479 61.9598 69.1485 61.1758C70.6866 60.8925 72.3379 60.4769 74.0931 59.9385C77.0088 60.8547 80.1888 62.1109 83.4632 63.6599C80.8305 63.915 78.2827 64.0472 75.8954 64.0472V64.0566ZM74.4988 64.8878C74.9612 64.8972 75.4141 64.9067 75.8954 64.9067C78.7262 64.9067 81.7836 64.7272 84.9258 64.3778C86.5866 65.1995 88.2757 66.0873 89.9459 67.0508C94.0318 69.3743 97.7496 71.8867 100.901 74.3802C96.7777 74.2858 92.2672 73.823 87.7378 73.039C85.8223 72.7084 83.9539 72.3212 82.1421 71.8961C79.5661 69.2326 76.9711 66.8713 74.4894 64.9067L74.4988 64.8878ZM93.258 87.4335C89.4741 85.9695 85.4071 84.0332 81.3495 81.7286C79.6604 80.7746 78.0374 79.7734 76.4899 78.7628C74.9895 75.3814 73.3759 72.3023 71.7246 69.6293C74.6687 70.7533 78.0374 71.7828 81.7175 72.6518C82.9914 73.9835 84.2559 75.3814 85.5014 76.8454C88.5305 80.4063 91.1537 84.0238 93.258 87.424V87.4335ZM72.3191 87.7452C71.0735 86.2812 69.8939 84.7983 68.7805 83.3248C68.554 79.6979 68.1105 76.2504 67.4877 73.1523C69.8562 75.202 72.6588 77.2988 75.7916 79.339C76.537 81.0202 77.2353 82.7676 77.9053 84.5621C79.5189 88.9353 80.7361 93.2234 81.5288 97.1337C81.274 96.9165 81.0287 96.6898 80.7645 96.4631C77.9713 93.9601 75.0933 91.0132 72.3096 87.7452H72.3191ZM57.4382 73.7285C58.278 72.1228 58.9763 70.6021 59.5141 69.1759C60.052 70.6021 60.7503 72.1228 61.5901 73.7285C61.1843 76.7037 60.4955 80.0001 59.5141 83.4665C58.5422 80.0001 57.8439 76.6943 57.4382 73.7285ZM52.6351 72.1606C53.5221 71.3578 54.3431 70.5455 55.098 69.7521C55.4754 69.3554 55.8246 68.9681 56.1548 68.5903C56.1643 70.111 56.2964 71.7828 56.5228 73.5679C55.1074 76.222 53.3145 79.0934 51.1914 82.0214C51.4745 78.4322 51.9746 75.0886 52.6257 72.1606H52.6351ZM51.5217 73.1429C50.9083 76.1937 50.4648 79.6223 50.2383 83.3343C49.1343 84.7983 47.9548 86.2812 46.6998 87.7452C43.6707 91.306 40.519 94.4985 37.49 97.1337C38.2827 93.2234 39.4905 88.9353 41.1041 84.5621C41.7741 82.7581 42.4723 81.0108 43.2178 79.339C46.294 77.3271 49.106 75.2303 51.5122 73.1523L51.5217 73.1429ZM48.653 69.0909C50.3421 68.4014 51.8708 67.6647 53.2107 66.9185C52.6917 68.3542 52.2294 69.9788 51.8236 71.745C49.54 73.7946 46.8507 75.8726 43.8878 77.8749C45.3976 74.6069 47.0206 71.6317 48.653 69.0909ZM47.3037 69.6198C45.6523 72.2928 44.0293 75.3814 42.5384 78.7628C40.9814 79.7734 39.3584 80.7652 37.6787 81.7191C33.6117 84.0332 29.5353 85.9695 25.7419 87.4335C27.884 83.9765 30.5261 80.3685 33.5268 76.8454C34.7818 75.3814 36.0463 73.9835 37.3107 72.6518C40.9908 71.7828 44.3596 70.7533 47.3037 69.6198ZM45.9449 64.8406C46.1619 64.8311 46.3695 64.8217 46.5865 64.8122C47.2754 64.7745 47.9453 64.7178 48.587 64.6611C49.4551 64.5761 50.2855 64.4722 51.0687 64.34C50.0873 65.5112 49.0965 66.8619 48.1152 68.3731C45.2843 69.516 42.01 70.5833 38.4525 71.4994C41.0003 68.9303 43.5481 66.6824 45.9543 64.85L45.9449 64.8406ZM43.1329 64.9067C43.6047 64.9067 44.067 64.9067 44.5294 64.8878C42.0477 66.8524 39.4622 69.2137 36.8861 71.8772C35.0743 72.3023 33.206 72.6895 31.2904 73.0201C26.761 73.8041 22.2411 74.2669 18.1175 74.3708C21.2786 71.8772 24.987 69.3648 29.0729 67.0413C30.7526 66.0873 32.4322 65.1901 34.093 64.3683C37.2352 64.7178 40.2926 64.8973 43.1234 64.8973L43.1329 64.9067ZM15.4848 59.5135C19.3064 58.2384 23.666 57.1333 28.2991 56.3305C30.1958 55.9999 32.0831 55.726 33.942 55.5182C37.2824 57.1522 40.5379 58.4934 43.5669 59.5135C40.5379 60.5241 37.2824 61.8748 33.942 63.5088C32.0831 63.2916 30.1958 63.0271 28.2991 62.6965C23.666 61.8937 19.3064 60.7886 15.4848 59.5135ZM16.4567 44.6279C16.5322 44.6279 16.6171 44.6279 16.6926 44.6279C20.033 47.3481 24.0906 50.1061 28.6483 52.7035C29.9599 53.4497 31.2716 54.1486 32.5832 54.8192C31.1206 55.0081 29.6391 55.2254 28.1576 55.4804C22.9771 56.3777 18.2213 57.615 14.1448 59.0318C5.78436 56.0754 0.349107 52.3446 0.896407 49.3127C1.02851 48.5665 1.5475 47.8959 2.38733 47.3009C4.77469 45.6196 9.83249 44.609 16.4378 44.609L16.4567 44.6279ZM31.2904 45.9974C33.206 46.328 35.0743 46.7153 36.8861 47.1403C39.4622 49.8133 42.0477 52.1651 44.5294 54.1297C44.0765 54.1203 43.6141 54.1108 43.1329 54.1108C40.2926 54.1108 37.2447 54.2903 34.1024 54.6398C32.4416 53.818 30.762 52.9302 29.0824 51.9668C24.9965 49.6433 21.2786 47.1308 18.1269 44.6373C19.9104 44.6751 21.7599 44.7884 23.6565 44.9679C26.1477 45.1946 28.7238 45.544 31.2904 45.988V45.9974ZM47.3037 49.3977C44.3596 48.2643 40.9908 47.2347 37.3107 46.3658C36.0368 45.0435 34.7724 43.6361 33.5268 42.1721C30.4978 38.6113 27.8745 34.9938 25.7702 31.5935C29.5542 33.0575 33.6212 34.9938 37.6787 37.2984C39.3678 38.2618 40.9908 39.2536 42.5384 40.2547C44.0387 43.6361 45.6523 46.7247 47.3037 49.3977ZM51.833 47.3103C52.2388 49.0671 52.7012 50.6728 53.2107 52.1085C51.8614 51.3623 50.3421 50.635 48.653 49.9361C47.0206 47.4048 45.407 44.4295 43.8972 41.1615C46.9073 43.2016 49.5872 45.289 51.833 47.3103ZM51.5217 45.8652C49.1532 43.825 46.36 41.7282 43.2178 39.688C42.4818 38.0068 41.7741 36.2594 41.1041 34.4648C39.4905 30.0917 38.2732 25.8036 37.49 21.8933C40.519 24.5285 43.6707 27.721 46.6998 31.2818C47.9453 32.7458 49.1249 34.2287 50.2383 35.6927C50.4648 39.3952 50.9083 42.8238 51.5217 45.8652ZM51.8708 16.774C53.8052 20.2782 55.6736 24.3207 57.2777 28.6655C57.9477 30.4695 58.5328 32.2547 59.0612 34.002C57.9949 37.5534 57.2211 40.9254 56.7399 43.995C55.2206 41.2748 53.324 38.3657 51.0876 35.3905C50.9744 33.5675 50.9177 31.688 50.9177 29.7706C50.9177 25.133 51.2669 20.7032 51.8708 16.774ZM67.516 45.8652C68.1294 42.8238 68.5729 39.3858 68.7994 35.6833C69.9034 34.2098 71.0923 32.7364 72.3285 31.2818C75.3669 27.7115 78.5281 24.519 81.5665 21.8744C80.7645 25.8414 79.5283 30.1295 77.9242 34.4648C77.2636 36.2594 76.5559 38.0068 75.8104 39.688C72.6776 41.7282 69.8845 43.825 67.516 45.8652ZM70.3846 49.9361C68.6955 50.635 67.1669 51.3623 65.8175 52.1085C65.9024 51.8629 65.9968 51.6173 66.0723 51.3623C66.4875 50.125 66.8649 48.7649 67.1952 47.3103C69.441 45.289 72.1303 43.2016 75.131 41.1615C73.6213 44.4201 71.9982 47.3953 70.3752 49.9266L70.3846 49.9361ZM71.7246 49.4071C73.3759 46.7341 74.9895 43.655 76.4899 40.2736C78.0374 39.263 79.6604 38.2713 81.3495 37.3078C85.4071 35.0032 89.4741 33.0669 93.258 31.6029C91.1537 35.0032 88.5305 38.6207 85.5014 42.1816C84.2559 43.6456 82.982 45.0529 81.7175 46.3752C78.0374 47.2442 74.6687 48.2737 71.7246 49.4071ZM73.0928 54.1864C71.215 54.2714 69.4976 54.4414 67.969 54.687C68.9503 53.5158 69.9411 52.1651 70.9225 50.6539C73.7534 49.5016 77.0277 48.4343 80.5852 47.5275C78.0374 50.0966 75.4896 52.3446 73.0834 54.177L73.0928 54.1864ZM75.8954 54.1203C75.4236 54.1203 74.9612 54.1203 74.4988 54.1392C76.9805 52.1746 79.5661 49.8227 82.1516 47.1497C83.9539 46.7247 85.8223 46.3374 87.7472 46.0069C92.2861 45.2135 96.806 44.7601 100.949 44.6562C97.7402 47.1781 94.0035 49.681 89.9553 51.9857C88.2757 52.9396 86.596 53.8369 84.9353 54.6587C81.793 54.3092 78.7451 54.1297 75.9048 54.1297L75.8954 54.1203ZM69.1485 57.8417C70.479 57.0672 71.8944 56.1132 73.3476 55.0176C74.1686 54.9892 75.0178 54.9704 75.8859 54.9704C78.2733 54.9704 80.8305 55.1026 83.4632 55.3576C80.1794 56.9066 77.0088 58.1628 74.0931 59.0885C72.3474 58.5501 70.6866 58.1345 69.1485 57.8511V57.8417ZM65.7515 59.5229C66.4592 59.249 67.1952 58.909 67.9595 58.5029C69.3938 58.7106 70.9508 59.0601 72.6116 59.5229C70.9508 59.9858 69.3938 60.3258 67.9595 60.543C67.1952 60.1369 66.4497 59.7968 65.7515 59.5229ZM67.969 64.3494C69.4976 64.6044 71.215 64.7745 73.0928 64.85C75.4991 66.6824 78.0374 68.9303 80.5946 71.4994C77.0372 70.5927 73.7628 69.5254 70.9319 68.3731C69.9506 66.8619 68.9598 65.5112 67.9784 64.34L67.969 64.3494ZM65.3268 65.6623C64.9966 64.8595 64.6474 64.1416 64.2983 63.4805C65.0154 63.7166 65.7986 63.9244 66.6573 64.1039C67.5915 65.1523 68.5446 66.3801 69.4976 67.7686C67.9407 67.0791 66.5441 66.3707 65.3363 65.6529L65.3268 65.6623ZM66.3082 68.4109C66.1478 67.8914 65.9779 67.4002 65.8175 66.928C67.1574 67.6741 68.6955 68.4109 70.3846 69.1098C72.0171 71.6506 73.6307 74.6164 75.1405 77.8844C72.1303 75.8442 69.441 73.7568 67.1952 71.7356C66.931 70.5644 66.629 69.4687 66.3176 68.4203L66.3082 68.4109ZM62.8451 67.2491C62.8074 66.3801 62.7319 65.5773 62.6186 64.8406C63.2131 65.3034 63.8831 65.7757 64.6285 66.2385C64.9305 66.9846 65.2136 67.7875 65.4778 68.6564C65.676 69.2987 65.8647 69.9693 66.044 70.6588C64.8078 69.4876 63.7321 68.3353 62.8451 67.2491ZM62.496 73.5868C62.7224 71.8017 62.8451 70.1299 62.864 68.6092C63.8736 69.771 65.0626 70.98 66.412 72.2078C67.082 75.1831 67.5538 78.5172 67.8369 82.0592C65.7137 79.1217 63.9114 76.2504 62.5054 73.5868H62.496ZM57.4098 63.9622C57.6835 63.6977 57.9288 63.4427 58.1553 63.1877C58.1553 63.5183 58.1742 63.8677 58.2119 64.2361C57.9194 64.8028 57.542 65.3978 57.1079 66.0212C57.1739 65.2751 57.2683 64.5856 57.4098 63.9716V63.9622ZM55.985 62.9988C56.3247 62.8476 56.6549 62.6871 56.9475 62.5265C56.8342 62.8382 56.7304 63.1782 56.6455 63.5371C56.1643 63.9622 55.617 64.3967 54.9847 64.8311C55.3056 64.1511 55.6358 63.5466 55.985 63.0082V62.9988ZM54.7205 63.4805C54.3525 64.1322 54.0128 64.8689 53.6825 65.6623C52.4747 66.3801 51.0687 67.0885 49.5117 67.778C50.4648 66.3896 51.4179 65.1617 52.352 64.1133C53.2107 63.9338 54.0034 63.726 54.7205 63.4805ZM51.0498 58.5029C51.8142 58.909 52.5596 59.249 53.2579 59.5229C52.5502 59.7968 51.8142 60.1369 51.0498 60.543C49.6155 60.3352 48.0586 59.9952 46.3978 59.5229C48.0586 59.0601 49.6155 58.7106 51.0498 58.5029ZM49.8609 57.8417C48.3228 58.125 46.6714 58.5406 44.9257 59.079C42.01 58.1628 38.83 56.8972 35.5462 55.3482C38.1789 55.0931 40.7266 54.9609 43.1234 54.9609C44.001 54.9609 44.8503 54.9798 45.6618 55.0081C47.1149 56.1038 48.5304 57.0483 49.8609 57.8322V57.8417ZM51.9557 55.7354C52.5313 56.3682 53.1069 56.9255 53.6637 57.4167C52.8805 57.4355 52.0501 57.5111 51.1631 57.6339C49.9081 56.9538 48.5681 56.1132 47.1716 55.112C48.9361 55.2348 50.5403 55.4426 51.9557 55.7354ZM48.0869 50.6633C49.0682 52.1746 50.0685 53.5252 51.0404 54.6964C49.5117 54.4414 47.7943 54.2809 45.926 54.1958C43.5197 52.3635 40.972 50.1155 38.4242 47.5464C41.9816 48.4532 45.256 49.5205 48.0869 50.6728V50.6633ZM56.1454 50.4367C55.1452 49.2843 53.9656 48.0848 52.6163 46.8569C51.9652 43.9289 51.4745 40.5948 51.182 37.0056C53.2957 39.9336 55.098 42.8049 56.5134 45.459C56.2775 47.2536 56.1548 48.916 56.1454 50.4367ZM59.0517 51.1451C58.7781 51.9762 58.5705 52.7507 58.4195 53.478C58.0232 52.8357 57.5608 52.184 57.023 51.504C56.9947 50.1155 57.0701 48.5665 57.2494 46.8947C57.9949 48.4059 58.6082 49.8416 59.0612 51.1545L59.0517 51.1451ZM61.5807 45.3174C61.0239 46.3752 60.5332 47.4142 60.0992 48.4154C59.8821 48.916 59.6934 49.3977 59.5141 49.8605C58.9763 48.4343 58.278 46.9136 57.4382 45.2985C57.8439 42.3232 58.5328 39.0269 59.5141 35.5605C60.4955 39.0269 61.1843 42.3327 61.5901 45.3079L61.5807 45.3174ZM62.2884 44.0234C61.8071 40.9537 61.0333 37.5723 59.9576 34.0115C60.486 32.2641 61.0805 30.4695 61.7411 28.6749C63.3452 24.3301 65.2042 20.2876 67.148 16.7834C67.7614 20.7126 68.1011 25.1424 68.1011 29.78C68.1011 31.6974 68.0445 33.577 67.9218 35.3999C65.7326 38.3279 63.817 41.2465 62.2695 44.0139L62.2884 44.0234ZM66.3931 46.8664C65.0532 48.0848 63.8642 49.2843 62.8734 50.4461C62.8545 48.9254 62.7319 47.2442 62.496 45.4496C63.9303 42.7483 65.7326 39.8958 67.8274 37.0056C67.5443 40.6042 67.0442 43.9478 66.3931 46.8758V46.8664ZM64.6285 52.8263C63.8831 53.2797 63.2131 53.7519 62.6186 54.2147C62.7319 53.4686 62.8074 52.6657 62.8451 51.8062C63.7227 50.72 64.7984 49.5866 66.0157 48.4154C65.9685 48.6043 65.9213 48.7932 65.8741 48.9727C65.4967 50.38 65.0815 51.674 64.6285 52.8168V52.8263ZM64.2888 55.5748C64.6568 54.9231 64.9966 54.1958 65.3268 53.393C66.5347 52.6752 67.9312 51.9573 69.4882 51.2773C68.5351 52.6657 67.5821 53.903 66.6573 54.942C65.7986 55.1215 65.006 55.3293 64.2888 55.5748ZM64.0341 57.445C63.6566 57.4733 63.2886 57.5111 62.9583 57.5678C63.1659 57.3222 63.3735 57.0483 63.5717 56.7649C64.1662 56.5194 64.8456 56.3021 65.5816 56.0943C65.0532 56.6138 64.5342 57.0672 64.0341 57.445ZM65.3457 57.4356C65.9119 56.9444 66.478 56.3777 67.0536 55.7543C68.4691 55.4615 70.0732 55.2537 71.8378 55.1309C70.4412 56.1227 69.1013 56.9727 67.8463 57.6528C66.9593 57.53 66.1195 57.4544 65.3457 57.4356ZM64.2983 59.0507C63.9963 58.9657 63.7038 58.8996 63.4207 58.8523C63.7132 58.6918 63.9963 58.5029 64.2888 58.2856C64.5059 58.2762 64.7229 58.2762 64.9305 58.2762C65.4117 58.2762 65.9307 58.3045 66.4592 58.3517C65.7703 58.6634 65.1098 58.9184 64.487 59.1073C64.4304 59.0885 64.3643 59.0696 64.3077 59.0507H64.2983ZM65.3457 61.6481C66.1289 61.6292 66.9593 61.5537 67.8463 61.4309C69.1013 62.1015 70.4412 62.9515 71.8378 63.9527C70.0732 63.8299 68.4691 63.6127 67.0536 63.3294C66.478 62.6965 65.9024 62.1298 65.3457 61.6481ZM62.9678 61.5159C63.3075 61.5725 63.6566 61.6009 64.0341 61.6292C64.5342 62.007 65.0532 62.4604 65.5816 62.9799C64.8456 62.7815 64.1756 62.5643 63.5811 62.3187C63.383 62.0259 63.1754 61.7614 62.9678 61.5159ZM62.0619 62.5454C62.3544 62.706 62.6752 62.8665 63.015 63.0177C63.3641 63.5466 63.6944 64.1605 64.0246 64.8406C63.4018 64.4155 62.8451 63.9811 62.3733 63.556C62.2884 63.1971 62.1846 62.8665 62.0713 62.5454H62.0619ZM60.8069 64.2739C60.8446 63.9055 60.8635 63.5466 60.8729 63.2066C61.0994 63.4616 61.3353 63.726 61.6184 63.9811C61.7599 64.6044 61.8543 65.2939 61.9204 66.0401C61.4769 65.4262 61.1088 64.8311 60.8163 64.2644L60.8069 64.2739ZM54.9942 61.6292C55.3716 61.6009 55.7396 61.5631 56.0699 61.5064C55.8623 61.752 55.6641 62.0259 55.466 62.3093C54.8715 62.5548 54.1921 62.7815 53.4561 62.9799C53.9845 62.4604 54.5035 62.007 55.0036 61.6292H54.9942ZM53.6825 61.6481C53.1164 62.1298 52.5502 62.6965 51.9746 63.3294C50.5592 63.6127 48.955 63.8205 47.1904 63.9527C48.587 62.9515 49.9269 62.1015 51.182 61.4309C52.069 61.5537 52.9088 61.6292 53.6825 61.6481ZM55.6075 60.2313C55.3244 60.4013 55.0319 60.5808 54.7394 60.798C54.5224 60.8075 54.3053 60.8169 54.0977 60.8169C53.6165 60.8169 53.0975 60.7886 52.5691 60.7414C53.2579 60.4297 53.9279 60.1747 54.5412 59.9763C54.9093 60.0896 55.2584 60.1652 55.6075 60.2313ZM54.7394 58.2856C55.0319 58.5029 55.3244 58.6918 55.6075 58.8523C55.2678 58.9184 54.9093 59.0035 54.5412 59.1073C53.9184 58.9184 53.2579 58.6634 52.5691 58.3517C53.0975 58.3045 53.6165 58.2762 54.0977 58.2762C54.3053 58.2762 54.5224 58.2762 54.7394 58.2856ZM55.4566 56.7649C55.6547 57.0577 55.8623 57.3222 56.0699 57.5678C55.7302 57.5111 55.3811 57.4733 55.0036 57.445C54.5035 57.0672 53.9845 56.6138 53.4561 56.0943C54.1921 56.2927 54.8621 56.5099 55.4566 56.7649ZM53.7014 53.4025C53.7014 53.4025 53.7109 53.4402 53.7203 53.4591C53.7486 53.5158 53.7675 53.5725 53.7958 53.6291C53.8618 53.7803 53.9184 53.9125 53.9845 54.0542C54.2298 54.602 54.4846 55.112 54.7394 55.5748C54.0222 55.3387 53.2296 55.1309 52.3709 54.942C51.4462 53.8936 50.4931 52.6657 49.54 51.2773C51.097 51.9668 52.503 52.6752 53.7109 53.393L53.7014 53.4025ZM58.1553 55.8676C57.9383 55.6126 57.6929 55.3482 57.4193 55.0931C57.2777 54.4698 57.1739 53.7803 57.1079 53.0341C57.5514 53.648 57.91 54.2336 58.2119 54.8003C58.1742 55.1781 58.1553 55.5276 58.1459 55.8676H58.1553ZM59.9387 54.6587C59.7689 54.9892 59.6274 55.3198 59.5141 55.641C59.4009 55.3293 59.2593 55.0081 59.0989 54.6776C59.1839 54.0447 59.3254 53.3647 59.5236 52.6279C59.7217 53.3552 59.8633 54.0353 59.9482 54.6681L59.9387 54.6587ZM61.609 55.0931C61.3353 55.3576 61.09 55.6126 60.8635 55.8771C60.8635 55.5371 60.8446 55.1876 60.7974 54.8098C61.0994 54.2431 61.4674 53.648 61.9015 53.0341C61.8354 53.7803 61.7316 54.4698 61.5995 55.0931H61.609ZM63.0338 56.0565C62.6847 56.2077 62.3639 56.3682 62.0619 56.5383C62.1751 56.2266 62.2789 55.8865 62.3639 55.5276C62.8451 55.1026 63.3924 54.6681 64.0246 54.2431C63.7038 54.9231 63.3735 55.5276 63.0338 56.066V56.0565ZM56.6644 55.5276C56.7493 55.8865 56.8531 56.2171 56.9663 56.5383C56.6738 56.3682 56.353 56.2171 56.0133 56.066C55.6641 55.5371 55.3339 54.9231 55.0036 54.2431C55.6264 54.6681 56.1831 55.1026 56.655 55.5276H56.6644ZM64.2983 60.7886C64.0058 60.5714 63.7132 60.3919 63.4301 60.2219C63.7698 60.1558 64.1284 60.0802 64.4964 59.9669C65.1192 60.1558 65.7798 60.4108 66.4686 60.7319C65.9402 60.7792 65.4212 60.8075 64.9399 60.8075C64.7323 60.8075 64.5247 60.8075 64.2983 60.7886ZM62.0053 51.504C61.4674 52.184 60.9956 52.8546 60.5993 53.4875C60.4483 52.7507 60.2407 51.9668 59.9671 51.1451C60.2313 50.3894 60.5332 49.596 60.9012 48.7554C61.1655 48.1415 61.4674 47.5086 61.7788 46.8664C61.9581 48.5476 62.0336 50.1155 62.0053 51.5134V51.504ZM56.1831 51.8062C56.2114 52.6657 56.2869 53.4686 56.4002 54.2147C55.8057 53.7519 55.1357 53.2797 54.3997 52.8263C53.8901 51.5323 53.4183 50.0494 53.0031 48.4154C54.2204 49.5866 55.2961 50.72 56.1831 51.8062ZM59.4575 66.2385C59.2876 65.5962 59.165 64.9917 59.0895 64.425C59.2593 64.0944 59.4009 63.7638 59.5141 63.4427C59.6368 63.7638 59.7689 64.085 59.9387 64.4155C59.8538 65.0484 59.7123 65.7284 59.5141 66.4557C59.4952 66.3801 59.4764 66.314 59.4575 66.2385ZM61.7788 72.1701C61.0334 70.6588 60.4294 69.2326 59.9671 67.9103C60.2407 67.0885 60.4483 66.3046 60.5993 65.5679C60.9956 66.2101 61.4674 66.8713 62.0053 67.5608C62.0336 68.9492 61.9581 70.4983 61.7788 72.1701ZM35.5556 63.6977C38.8394 62.1487 42.01 60.8925 44.9352 59.9763C46.6809 60.5147 48.3417 60.9303 49.8703 61.2136C48.5398 61.9976 47.1244 62.9421 45.6712 64.0283C44.8503 64.0661 44.0104 64.085 43.1329 64.085C40.7455 64.085 38.1883 63.9527 35.5556 63.6977ZM54.4752 69.2043C54.0128 69.6954 53.5127 70.1866 52.9937 70.6872C53.4089 69.0437 53.8807 67.5514 54.3903 66.2479C55.1357 65.7851 55.7963 65.3223 56.3907 64.85C56.2775 65.5962 56.202 66.399 56.1643 67.268C55.6641 67.8914 55.098 68.5431 54.4658 69.2043H54.4752ZM57.0324 67.5702C57.5703 66.8902 58.0421 66.2196 58.4384 65.5868C58.5894 66.3235 58.797 67.098 59.0706 67.9197C58.6177 69.2326 58.0043 70.6683 57.2589 72.1795C57.0796 70.5077 57.0041 68.9587 57.0324 67.5702ZM64.1096 5.50588C64.1473 5.59088 64.185 5.67589 64.2322 5.77034C64.2794 5.87424 64.3266 5.97814 64.3738 6.08203C65.4212 8.53778 66.2987 11.7397 66.9498 15.4328C64.8078 19.1636 62.7413 23.5745 60.9579 28.3821C60.4389 29.7895 59.9576 31.1874 59.5236 32.5569C59.0895 31.1874 58.6082 29.7989 58.0893 28.3821C56.3152 23.5745 54.2487 19.1636 52.0973 15.4328C53.6071 6.81876 56.4002 0.877732 59.5236 0.877732C59.6651 0.877732 59.7972 0.887177 59.9387 0.915512C61.4014 1.17053 62.8545 2.78566 64.119 5.50588H64.1096ZM51.0876 83.6649C53.324 80.6896 55.2301 77.7805 56.7399 75.0603C57.2211 78.1205 57.9949 81.4925 59.0706 85.0533C58.5422 86.8007 57.9477 88.5952 57.2872 90.3898C55.683 94.7346 53.8241 98.7866 51.8802 102.281C51.2763 98.3521 50.9272 93.9223 50.9272 89.2847C50.9272 87.3674 50.9838 85.4878 51.097 83.6649H51.0876ZM68.1199 89.2847C68.1199 93.9223 67.7708 98.3521 67.1669 102.281C65.2325 98.7866 63.3641 94.7346 61.7599 90.3898C61.09 88.5858 60.5049 86.8007 59.9765 85.0533C61.0428 81.5019 61.8166 78.13 62.2978 75.0603C63.817 77.7805 65.7137 80.6896 67.9595 83.6743C68.0633 85.5067 68.1199 87.3768 68.1199 89.2847ZM98.1743 97.691C98.212 97.8232 98.2497 97.9554 98.2875 98.0782C98.3347 98.2577 98.3913 98.4466 98.4385 98.626C98.4385 98.6449 98.4385 98.6638 98.4479 98.6733C99.0613 101.223 98.948 103.131 98.061 104.17C97.9761 104.274 97.8723 104.369 97.7685 104.463C97.2684 104.879 96.589 105.087 95.7397 105.087C92.6352 105.087 87.851 102.442 82.6234 98.0877C81.8402 93.8845 80.538 89.1903 78.7262 84.2977C78.2072 82.8903 77.6599 81.5302 77.1032 80.1985C78.3299 80.9635 79.6038 81.738 80.9249 82.4842C85.3788 85.0155 89.8421 87.1029 93.9657 88.6236C95.8907 91.8916 97.3156 94.9235 98.1082 97.4737C98.1271 97.5398 98.1554 97.6154 98.1743 97.691ZM102.581 44.6562C111.508 44.6562 117.603 46.498 118.122 49.3599C118.5 51.4662 115.858 54.1108 110.875 56.5949C109.101 57.4828 107.101 58.314 104.931 59.0885C100.845 57.6622 96.07 56.4344 90.8801 55.5276C89.3986 55.2726 87.9171 55.0459 86.4545 54.8665C87.7661 54.1958 89.0683 53.4969 90.3894 52.7507C94.8338 50.2194 98.9103 47.452 102.336 44.6751C102.421 44.6751 102.505 44.6751 102.59 44.6751L102.581 44.6562ZM106.176 59.5324C108.016 58.8523 109.724 58.1156 111.262 57.3505C116.688 54.6398 119.425 51.7495 118.962 49.2088C118.377 45.9219 112.555 43.9195 103.345 43.8156C104.836 42.5499 106.195 41.2843 107.375 40.0375C111.526 35.6644 113.102 32.028 111.791 29.7895C110.97 28.3821 109.149 27.6737 106.374 27.6737C103.421 27.6737 99.5519 28.4955 95.2585 29.9784C99.5991 22.3655 100.977 16.1601 98.3158 13.9593C97.6553 13.4209 96.7871 13.1376 95.7397 13.1376C92.6163 13.1376 87.9454 15.6122 82.8404 19.7398C83.1613 17.813 83.3688 15.99 83.4726 14.271C83.8029 8.29221 82.6328 4.51413 80.17 3.62628C79.8114 3.49405 79.4245 3.42793 79.0188 3.42793C75.8576 3.42793 71.6396 7.63105 67.6387 14.2616C67.0253 11.0785 66.2327 8.29221 65.2985 6.06314C65.2891 6.02536 65.2702 5.98758 65.2608 5.95925C65.1853 5.78923 65.1098 5.62866 65.0437 5.45865C64.9777 5.32642 64.9211 5.19419 64.8644 5.06195C64.855 5.03362 64.8361 5.01473 64.8267 4.98639C63.2886 1.76558 61.4674 0.0371094 59.533 0.0371094C56.051 0.0371094 53.0598 5.67589 51.4179 14.271C47.4075 7.64049 43.1895 3.43738 40.0378 3.43738C39.632 3.43738 39.2451 3.5035 38.8866 3.63573C35.6122 4.80693 34.763 11.1069 36.1973 19.7303C31.0923 15.6122 26.4213 13.147 23.3074 13.147C22.26 13.147 21.3824 13.4209 20.7313 13.9688C18.0609 16.1695 19.448 22.375 23.7886 29.9878C19.4857 28.5049 15.6358 27.6832 12.6728 27.6832C9.90798 27.6832 8.07736 28.3916 7.25641 29.7989C5.52015 32.7741 8.96436 38.1296 15.6829 43.825C10.1345 43.8911 5.82211 44.6373 3.14222 45.9502C1.37765 46.8097 0.320798 47.9148 0.0848931 49.2182C-0.519024 52.5902 4.57653 56.4627 12.8521 59.5513C4.53878 62.5832 -0.556769 66.4557 0.0471483 69.8371C0.641629 73.124 6.4449 75.117 15.6452 75.2303C8.92662 80.9257 5.47297 86.2812 7.21867 89.2564C8.03961 90.6637 9.8608 91.3721 12.635 91.3721C15.598 91.3721 19.4669 90.541 23.7698 89.0581C22.7978 90.7582 21.9675 92.4017 21.288 93.9696C18.9007 99.4855 18.6931 103.424 20.6936 105.087C21.3541 105.634 22.2222 105.908 23.2697 105.908C26.3836 105.908 31.0545 103.443 36.1595 99.325C34.7252 107.948 35.5745 114.248 38.8488 115.42C39.2168 115.552 39.5943 115.618 40 115.618C43.1517 115.618 47.3697 111.415 51.3801 104.784C53.022 113.37 56.0133 119.009 59.4952 119.009C62.9772 119.009 65.9685 113.37 67.6104 104.784C71.6113 111.415 75.8388 115.618 78.9904 115.618C79.3962 115.618 79.7831 115.552 80.1417 115.42C83.416 114.248 84.2653 107.948 82.831 99.325C87.9265 103.443 92.5975 105.908 95.7208 105.908C96.7777 105.908 97.6458 105.634 98.2969 105.087C99.8728 103.783 100.071 101.063 98.9291 97.2754C98.9008 97.162 98.8631 97.0581 98.8348 96.9448C98.8065 96.8598 98.7687 96.7653 98.7404 96.6709C97.995 94.404 96.8154 91.8255 95.2396 89.0581C99.5331 90.541 103.392 91.3721 106.355 91.3721C109.12 91.3721 110.951 90.6637 111.772 89.2564C113.508 86.2812 110.064 80.9257 103.345 75.2303C112.546 75.117 118.358 73.124 118.943 69.8371C119.547 66.4557 114.442 62.5832 106.157 59.4946L106.176 59.5324Z" fill="white"/>
</g>
<defs>
<clipPath id="clip0_95_37">
<rect width="119" height="119" fill="white"/>
</clipPath>
</defs>
</svg>
